<?xml version="1.0" encoding="utf-8"?><!DOCTYPE svg PUBLIC "-//W3C//DTD SVG 1.1//EN" "http://www.w3.org/Graphics/SVG/1.1/DTD/svg11.dtd"><svg version="1.1" xmlns="http://www.w3.org/2000/svg" xmlns:xlink="http://www.w3.org/1999/xlink" width="32" height="32" viewBox="0 0 32 32" data-tags="docker"><g fill="#444" transform="scale(0.03125 0.03125)"><path fill="rgb(20, 136, 198)" d="M205.653 737.067c-29.184 0-55.637-23.893-55.637-52.907s23.893-53.035 55.68-53.035c31.915 0 55.893 23.893 55.893 52.992s-26.539 52.907-55.936 52.949zM888.832 448.512c-5.76-42.325-32-76.8-66.56-103.253l-13.44-10.667-10.837 13.227c-21.077 23.893-29.44 66.261-26.88 97.92 2.56 23.979 10.24 47.787 23.637 66.304-10.837 5.547-24.235 10.667-34.56 16.085-24.32 7.979-47.957 10.667-71.68 10.667h-684.373l-2.56 15.787c-5.12 50.432 2.56 103.253 23.979 151.040l10.411 18.56v2.56c64 105.941 177.92 153.6 301.995 153.6 238.677 0 434.432-103.253 527.232-325.675 60.8 2.645 122.197-13.227 151.040-71.509l7.68-13.227-12.8-7.979c-34.56-21.077-81.92-23.893-121.6-13.227zM547.157 406.187h-103.595v103.253h103.68v-103.339zM547.157 276.352h-103.595v103.253h103.68v-103.125zM547.157 143.915h-103.595v103.253h103.68v-103.253zM673.877 406.187h-102.997v103.253h103.253v-103.339zM289.963 406.187h-102.955v103.253h103.339v-103.339zM419.243 406.187h-102.4v103.253h102.997v-103.339zM161.963 406.187h-102.229v103.253h103.595v-103.339zM419.243 276.352h-102.4v103.253h102.997v-103.125zM289.323 276.352h-102.144v103.253h102.955v-103.125z" /></g></svg>